<svg width="100%" height="100%" viewBox="0 0 50 50" fill="none" xmlns="http://www.w3.org/2000/svg">
<path d="M37 13.75V15.25C37 15.6642 36.6642 16 36.25 16H13.75C13.3358 16 13 15.6642 13 15.25V13.75C13 13.3358 13.3358 13 13.75 13H20.5V11.5C20.5 10.6716 21.1716 10 22 10H28C28.8284 10 29.5 10.6716 29.5 11.5V13H36.25C36.6642 13 37 13.3358 37 13.75ZM15.805 37.21C15.9155 38.7843 17.2268 40.0039 18.805 40H31.225C32.8032 40.0039 34.1145 38.7843 34.225 37.21L35.5 19H14.5L15.805 37.21Z" fill="currentColor"/>
</svg>