<svg width="100%" height="100%" viewBox="0 0 50 50" fill="none" xmlns="http://www.w3.org/2000/svg">
<path d="M26.3519 17.6957C26.3519 18.4085 25.7741 18.9863 25.0614 18.9863C24.3486 18.9863 23.7709 18.4085 23.7709 17.6957C23.7709 16.983 24.3486 16.4052 25.0614 16.4052C25.7741 16.4052 26.3519 16.983 26.3519 17.6957ZM24.5675 22.1083C24.7241 22.0434 24.8919 22.01 25.0614 22.01C25.2308 22.01 25.3987 22.0434 25.5552 22.1083C25.7118 22.1731 25.8541 22.2682 25.9739 22.388C26.0937 22.5079 26.1888 22.6501 26.2536 22.8067C26.3185 22.9633 26.3519 23.1311 26.3519 23.3005V32.7505C26.3519 33.0928 26.2159 33.421 25.9739 33.663C25.7319 33.9051 25.4036 34.041 25.0614 34.041C24.7191 34.041 24.3909 33.9051 24.1488 33.663C23.9068 33.421 23.7709 33.0928 23.7709 32.7505V23.3006C23.7709 23.1311 23.8042 22.9633 23.8691 22.8067C23.9339 22.6501 24.029 22.5079 24.1488 22.388C24.2687 22.2682 24.4109 22.1731 24.5675 22.1083ZM41.7847 25.0624C41.7847 34.2981 34.2976 41.7852 25.0619 41.7852C15.8262 41.7852 8.33911 34.2981 8.33911 25.0624C8.33911 15.8266 15.8262 8.3396 25.0619 8.3396C34.2976 8.3396 41.7847 15.8266 41.7847 25.0624ZM25.0619 39.9475C33.2827 39.9475 39.947 33.2832 39.947 25.0624C39.947 16.8415 33.2827 10.1772 25.0619 10.1772C16.8411 10.1772 10.1768 16.8415 10.1768 25.0624C10.1768 33.2832 16.8411 39.9475 25.0619 39.9475Z" fill="currentColor" stroke="currentColor" stroke-width="0.430168"/>
</svg>
