<svg data-v-423bf9ae="" width="270px" height="60px" xmlns="http://www.w3.org/2000/svg" viewBox="0 0 655 90" class="iconLeft"><!----><!----><!----><g data-v-423bf9ae="" id="25292a67-768a-490f-be4d-f52ac360e923" fill="#000000" transform="matrix(5.258545206169178,0,0,5.258545206169178,104.1104431733495,6.165645371520064)"><path d="M2.31 7.84L6.02 7.84L6.02 6.72L2.31 6.72L2.31 3.92L6.16 3.92L6.16 2.80L1.12 2.80L1.12 12.60L2.31 12.60ZM10.42 7.39L11.03 6.47C10.74 6.17 10.34 6.02 9.83 6.02C9.31 6.02 8.86 6.31 8.47 6.90L8.47 6.16L7.35 6.16L7.35 12.60L8.47 12.60L8.47 8.68C8.47 7.61 8.83 7.07 9.55 7.07C9.83 7.07 10.12 7.18 10.42 7.39ZM11.59 9.38C11.59 10.35 11.91 11.15 12.54 11.79C13.18 12.42 13.97 12.74 14.92 12.74C15.88 12.74 16.67 12.42 17.30 11.79C17.94 11.15 18.26 10.35 18.26 9.38C18.26 8.41 17.94 7.61 17.30 6.97C16.67 6.34 15.88 6.02 14.92 6.02C13.97 6.02 13.18 6.34 12.54 6.97C11.91 7.61 11.59 8.41 11.59 9.38ZM12.73 9.38C12.73 8.71 12.93 8.15 13.35 7.72C13.76 7.29 14.29 7.07 14.92 7.07C15.56 7.07 16.08 7.29 16.50 7.72C16.91 8.15 17.12 8.71 17.12 9.38C17.12 10.05 16.91 10.61 16.50 11.04C16.08 11.47 15.56 11.69 14.92 11.69C14.29 11.69 13.76 11.47 13.35 11.04C12.93 10.61 12.73 10.05 12.73 9.38ZM20.92 8.68C20.92 8.21 21.07 7.83 21.37 7.52C21.67 7.22 22.07 7.07 22.55 7.07C23.47 7.07 23.93 7.61 23.93 8.68L23.93 12.60L25.05 12.60L25.05 8.54C25.05 7.73 24.85 7.10 24.45 6.67C24.05 6.24 23.52 6.02 22.83 6.02C22.03 6.02 21.39 6.36 20.92 7.03L20.92 6.16L19.80 6.16L19.80 12.60L20.92 12.60ZM26.94 3.92L26.94 6.16L25.89 6.16L25.89 7.21L26.94 7.21L26.94 12.60L28.06 12.60L28.06 7.21L29.11 7.21L29.11 6.16L28.06 6.16L28.06 3.92ZM34.68 8.71L30.84 8.71C30.90 8.19 31.12 7.78 31.49 7.47C31.87 7.16 32.33 7.00 32.86 7.00C33.40 7.00 33.82 7.15 34.13 7.46C34.44 7.77 34.62 8.19 34.68 8.71ZM30.81 9.66L35.88 9.66C35.89 9.59 35.90 9.47 35.90 9.32C35.90 8.32 35.62 7.51 35.06 6.92C34.51 6.32 33.77 6.02 32.86 6.02C31.92 6.02 31.15 6.33 30.56 6.96C29.96 7.59 29.67 8.40 29.67 9.38C29.67 10.35 29.96 11.15 30.53 11.79C31.11 12.42 31.84 12.74 32.72 12.74C33.49 12.74 34.11 12.60 34.57 12.33C35.02 12.06 35.43 11.65 35.78 11.10L34.87 10.53C34.40 11.30 33.73 11.69 32.86 11.69C32.27 11.69 31.79 11.51 31.43 11.16C31.07 10.80 30.86 10.30 30.81 9.66ZM38.56 8.68C38.56 8.21 38.71 7.83 39.01 7.52C39.31 7.22 39.71 7.07 40.19 7.07C41.11 7.07 41.57 7.61 41.57 8.68L41.57 12.60L42.69 12.60L42.69 8.54C42.69 7.73 42.49 7.10 42.09 6.67C41.69 6.24 41.16 6.02 40.47 6.02C39.67 6.02 39.03 6.36 38.56 7.03L38.56 6.16L37.44 6.16L37.44 12.60L38.56 12.60ZM44.23 9.38C44.23 10.40 44.53 11.21 45.14 11.82C45.75 12.43 46.51 12.74 47.42 12.74C48.39 12.74 49.12 12.32 49.62 11.49L49.62 12.60L50.74 12.60L50.74 1.68L49.62 1.68L49.62 7.27C49.12 6.44 48.39 6.02 47.42 6.02C46.51 6.02 45.75 6.33 45.14 6.94C44.53 7.55 44.23 8.36 44.23 9.38ZM45.36 9.38C45.36 8.66 45.57 8.10 45.99 7.69C46.41 7.28 46.93 7.07 47.56 7.07C48.09 7.07 48.57 7.28 48.99 7.70C49.41 8.12 49.62 8.68 49.62 9.38C49.62 10.08 49.41 10.64 48.99 11.06C48.57 11.48 48.09 11.69 47.56 11.69C46.93 11.69 46.41 11.48 45.99 11.07C45.57 10.66 45.36 10.10 45.36 9.38ZM56.41 9.38C56.41 10.40 56.71 11.21 57.32 11.82C57.93 12.43 58.69 12.74 59.60 12.74C60.57 12.74 61.30 12.32 61.80 11.49L61.80 12.60L62.92 12.60L62.92 1.68L61.80 1.68L61.80 7.27C61.30 6.44 60.57 6.02 59.60 6.02C58.69 6.02 57.93 6.33 57.32 6.94C56.71 7.55 56.41 8.36 56.41 9.38ZM57.54 9.38C57.54 8.66 57.75 8.10 58.17 7.69C58.59 7.28 59.11 7.07 59.74 7.07C60.27 7.07 60.75 7.28 61.17 7.70C61.59 8.12 61.80 8.68 61.80 9.38C61.80 10.08 61.59 10.64 61.17 11.06C60.75 11.48 60.27 11.69 59.74 11.69C59.11 11.69 58.59 11.48 58.17 11.07C57.75 10.66 57.54 10.10 57.54 9.38ZM69.40 8.71L65.56 8.71C65.62 8.19 65.84 7.78 66.21 7.47C66.59 7.16 67.05 7.00 67.58 7.00C68.12 7.00 68.54 7.15 68.85 7.46C69.16 7.77 69.34 8.19 69.40 8.71ZM65.53 9.66L70.60 9.66C70.61 9.59 70.62 9.47 70.62 9.32C70.62 8.32 70.34 7.51 69.78 6.92C69.23 6.32 68.49 6.02 67.58 6.02C66.64 6.02 65.87 6.33 65.28 6.96C64.68 7.59 64.39 8.40 64.39 9.38C64.39 10.35 64.68 11.15 65.25 11.79C65.83 12.42 66.56 12.74 67.44 12.74C68.21 12.74 68.83 12.60 69.29 12.33C69.74 12.06 70.15 11.65 70.50 11.10L69.59 10.53C69.12 11.30 68.45 11.69 67.58 11.69C66.99 11.69 66.51 11.51 66.15 11.16C65.79 10.80 65.58 10.30 65.53 9.66ZM71.11 6.16L74.19 13.09L77.27 6.16L76.01 6.16L74.19 10.71L72.37 6.16ZM78.67 3.92L78.67 6.16L77.62 6.16L77.62 7.21L78.67 7.21L78.67 12.60L79.79 12.60L79.79 7.21L80.84 7.21L80.84 6.16L79.79 6.16L79.79 3.92ZM81.40 9.38C81.40 10.35 81.71 11.15 82.35 11.79C82.98 12.42 83.78 12.74 84.73 12.74C85.68 12.74 86.47 12.42 87.11 11.79C87.74 11.15 88.06 10.35 88.06 9.38C88.06 8.41 87.74 7.61 87.11 6.97C86.47 6.34 85.68 6.02 84.73 6.02C83.78 6.02 82.98 6.34 82.35 6.97C81.71 7.61 81.40 8.41 81.40 9.38ZM82.53 9.38C82.53 8.71 82.74 8.15 83.15 7.72C83.57 7.29 84.09 7.07 84.73 7.07C85.36 7.07 85.89 7.29 86.30 7.72C86.72 8.15 86.93 8.71 86.93 9.38C86.93 10.05 86.72 10.61 86.30 11.04C85.89 11.47 85.36 11.69 84.73 11.69C84.09 11.69 83.57 11.47 83.15 11.04C82.74 10.61 82.53 10.05 82.53 9.38ZM89.04 9.38C89.04 10.35 89.36 11.15 89.99 11.79C90.63 12.42 91.42 12.74 92.37 12.74C93.32 12.74 94.12 12.42 94.75 11.79C95.39 11.15 95.70 10.35 95.70 9.38C95.70 8.41 95.39 7.61 94.75 6.97C94.12 6.34 93.32 6.02 92.37 6.02C91.42 6.02 90.63 6.34 89.99 6.97C89.36 7.61 89.04 8.41 89.04 9.38ZM90.17 9.38C90.17 8.71 90.38 8.15 90.80 7.72C91.21 7.29 91.74 7.07 92.37 7.07C93.01 7.07 93.53 7.29 93.95 7.72C94.36 8.15 94.57 8.71 94.57 9.38C94.57 10.05 94.36 10.61 93.95 11.04C93.53 11.47 93.01 11.69 92.37 11.69C91.74 11.69 91.21 11.47 90.80 11.04C90.38 10.61 90.17 10.05 90.17 9.38ZM97.24 1.68L97.24 12.60L98.36 12.60L98.36 1.68ZM100.76 10.35L99.83 10.88C99.93 11.40 100.22 11.84 100.72 12.20C101.21 12.56 101.76 12.74 102.35 12.74C103.08 12.74 103.66 12.58 104.08 12.26C104.50 11.93 104.71 11.44 104.71 10.78C104.71 10.01 104.11 9.37 102.93 8.88C102.61 8.75 102.36 8.64 102.18 8.55C102.00 8.46 101.82 8.34 101.63 8.18C101.45 8.03 101.36 7.87 101.36 7.71C101.36 7.29 101.69 7.08 102.34 7.08C102.62 7.08 102.89 7.15 103.16 7.28C103.43 7.41 103.62 7.60 103.75 7.85L104.65 7.28C104.53 6.93 104.24 6.63 103.78 6.38C103.32 6.14 102.84 6.02 102.33 6.02C101.78 6.02 101.29 6.18 100.87 6.49C100.45 6.80 100.24 7.21 100.24 7.71C100.24 7.97 100.29 8.19 100.39 8.40C100.50 8.61 100.65 8.78 100.85 8.93C101.05 9.08 101.24 9.20 101.42 9.29C101.59 9.38 101.82 9.48 102.09 9.59C102.33 9.68 102.52 9.76 102.64 9.82C102.77 9.88 102.91 9.97 103.08 10.07C103.24 10.18 103.36 10.30 103.43 10.43C103.51 10.56 103.54 10.71 103.54 10.88C103.54 11.42 103.17 11.69 102.42 11.69C102.02 11.69 101.67 11.56 101.35 11.31C101.04 11.06 100.84 10.74 100.76 10.35Z"></path></g><defs data-v-423bf9ae=""><linearGradient data-v-423bf9ae="" gradientTransform="rotate(25)" id="5f45e83e-1ae1-4928-afa6-ce473a7fc952" x1="0%" y1="0%" x2="100%" y2="0%"><stop data-v-423bf9ae="" offset="0%" style="stop-color: rgb(0, 118, 221); stop-opacity: 1;"></stop><stop data-v-423bf9ae="" offset="100%" style="stop-color: rgb(0, 205, 233); stop-opacity: 1;"></stop></linearGradient></defs><g data-v-423bf9ae="" id="f09bff28-2868-4bac-990f-325847234f8c" transform="matrix(2.8125,0,0,2.8125,0,0)" stroke="none" fill="url(#5f45e83e-1ae1-4928-afa6-ce473a7fc952)"><path d="M0 16.024L15.976 32 32 15.976 16.024 0 0 16.024zm15.989 7.323l-7.336-7.336 14.694-.022-7.358 7.358z"></path></g><!----></svg>